<?xml version="1.0" encoding="UTF-8"?>
<svg version="1.1" xmlns="http://www.w3.org/2000/svg" width="256" height="256">
<path d="M0 0 C3.5625 0.5625 3.5625 0.5625 5.9375 2.6875 C7.5625 5.5625 7.5625 5.5625 8.5625 11.5625 C13.1825 11.5625 17.8025 11.5625 22.5625 11.5625 C22.8925 9.9125 23.2225 8.2625 23.5625 6.5625 C27.34414557 0.83600814 27.34414557 0.83600814 31.625 -0.125 C35.52972611 0.78887207 36.46966897 2.19902156 38.5625 5.5625 C39.98393792 8.54751964 40.5625 10.23980616 40.5625 13.5625 C41.531875 13.77003906 42.50125 13.97757813 43.5 14.19140625 C65.39932364 19.12199606 84.04841553 29.45949885 100.5625 44.5625 C101.37332031 45.29082031 102.18414062 46.01914062 103.01953125 46.76953125 C124.81745917 67.345859 137.80383041 98.5010031 138.765625 128.3046875 C139.31766251 164.49654787 126.94281658 196.27591926 101.9375 222.5625 C86.34083205 237.72659473 67.42905949 247.79161468 46.5625 253.5625 C45.36238281 253.9028125 44.16226563 254.243125 42.92578125 254.59375 C11.27482793 261.98467532 -22.99992706 255.52895201 -50.4375 238.5625 C-80.03462633 218.59421069 -98.62473608 190.8323071 -105.859375 155.87890625 C-110.62835413 128.52172193 -106.63697596 96.83514381 -91.7578125 72.85546875 C-90.18800098 70.57018631 -90.18800098 70.57018631 -90.4375 67.5625 C-92.4175 66.5725 -94.3975 65.5825 -96.4375 64.5625 C-96.4375 63.5725 -96.4375 62.5825 -96.4375 61.5625 C-95.0453125 60.9746875 -95.0453125 60.9746875 -93.625 60.375 C-90.17828196 58.41510151 -89.27663242 56.96489497 -87.4375 53.5625 C-86.7775 53.5625 -86.1175 53.5625 -85.4375 53.5625 C-84.7775 55.2125 -84.1175 56.8625 -83.4375 58.5625 C-80.77471043 55.91442198 -78.13178393 53.252383 -75.52734375 50.546875 C-68.62256674 43.43249844 -61.57782704 37.23872804 -53.4375 31.5625 C-54.07042969 31.27375 -54.70335937 30.985 -55.35546875 30.6875 C-57.88061535 29.32306807 -58.51484734 28.24658046 -59.4375 25.5625 C-58.0913514 22.8702028 -56.86137619 22.90669014 -54.0625 21.9375 C-50.54159431 20.48738769 -50.54159431 20.48738769 -48.28125 17.55859375 C-47.62746706 15.57237274 -47.02930476 13.56806056 -46.4375 11.5625 C-45.4475 11.2325 -44.4575 10.9025 -43.4375 10.5625 C-40.07158573 13.28728774 -38.99523724 16.63106792 -37.4375 20.5625 C-32.32126294 19.98155953 -27.72865531 18.80127109 -22.875 17.0625 C-18.42745244 15.4789378 -14.13405547 14.19932108 -9.4375 13.5625 C-9.25574219 12.95921875 -9.07398437 12.3559375 -8.88671875 11.734375 C-5.47800085 0.89640014 -5.47800085 0.89640014 0 0 Z " fill="#3562BB" transform="translate(112.4375,-0.5625)"/>
<path d="M0 0 C23.08553515 4.94251484 42.58263268 15.07089904 60 31 C60.81082031 31.72832031 61.62164062 32.45664062 62.45703125 33.20703125 C84.25495917 53.783359 97.24133041 84.9385031 98.203125 114.7421875 C98.73483764 149.60153888 87.36750108 181.08983755 63.45703125 206.7265625 C58.93706839 211.36277251 54.46385592 215.51243239 49 219 C48.67 219 48.34 219 48 219 C47.67 214.05 47.34 209.1 47 204 C7.73 203.67 -31.54 203.34 -72 203 C-72 180.89 -72 158.78 -72 136 C-40.98 136 -9.96 136 22 136 C22 132.37 22 128.74 22 125 C20.12411949 125.00333092 20.12411949 125.00333092 18.21034241 125.00672913 C6.45245469 125.02695845 -5.30542951 125.04197112 -17.06333065 125.05181217 C-23.10887817 125.05704153 -29.1544117 125.06414014 -35.19995117 125.07543945 C-41.02894288 125.08626645 -46.85792109 125.09227643 -52.68692207 125.09487724 C-54.9161761 125.09673183 -57.14542935 125.10035308 -59.37467766 125.10573006 C-62.48539734 125.11293799 -65.59606049 125.11399105 -68.70678711 125.11352539 C-69.63826569 125.11712067 -70.56974426 125.12071594 -71.52944946 125.12442017 C-77.88594784 125.11405216 -77.88594784 125.11405216 -79 124 C-79.04092937 121.66702567 -79.04241723 119.33294775 -79 117 C-79.78238037 117.00523682 -80.56476074 117.01047363 -81.37084961 117.01586914 C-84.89305833 117.03657106 -88.4152543 117.04963838 -91.9375 117.0625 C-93.16919922 117.07087891 -94.40089844 117.07925781 -95.66992188 117.08789062 C-96.83974609 117.09111328 -98.00957031 117.09433594 -99.21484375 117.09765625 C-100.84087524 117.10551147 -100.84087524 117.10551147 -102.49975586 117.11352539 C-105 117 -105 117 -106 116 C-106.09873816 114.00200428 -106.12971799 112.00042842 -106.125 110 C-106.12757812 108.906875 -106.13015625 107.81375 -106.1328125 106.6875 C-106 104 -106 104 -105 103 C-103.63438234 102.89258229 -102.26332757 102.85321012 -100.89353943 102.84178162 C-100.00867859 102.8319928 -99.12381775 102.82220398 -98.21214294 102.81211853 C-97.23391068 102.80636307 -96.25567841 102.8006076 -95.24780273 102.79467773 C-94.2235318 102.78477814 -93.19926086 102.77487854 -92.14395142 102.76467896 C-88.7405228 102.73295829 -85.33708019 102.70826493 -81.93359375 102.68359375 C-79.58089321 102.66303334 -77.22819644 102.64203712 -74.87550354 102.62062073 C-68.66947474 102.56530576 -62.46341208 102.51593819 -56.25732422 102.46777344 C-49.92998221 102.41762705 -43.60268963 102.36190525 -37.27539062 102.30664062 C-24.8503026 102.19894385 -12.42517174 102.09752463 0 102 C-1.32 100.02 -2.64 98.04 -4 96 C-3.44570312 95.45730469 -2.89140625 94.91460937 -2.3203125 94.35546875 C-1.59585938 93.64003906 -0.87140625 92.92460938 -0.125 92.1875 C0.59429687 91.47980469 1.31359375 90.77210937 2.0546875 90.04296875 C4.15358937 87.95600806 4.15358937 87.95600806 6 85 C8.1640625 84.70703125 8.1640625 84.70703125 10.625 84.8125 C11.44226563 84.83957031 12.25953125 84.86664063 13.1015625 84.89453125 C13.72804688 84.92933594 14.35453125 84.96414062 15 85 C15 83.02 15 81.04 15 79 C13.02 79 11.04 79 9 79 C9 78.34 9 77.68 9 77 C12.465 76.01 12.465 76.01 16 75 C15.67 73.68 15.34 72.36 15 71 C13.02 70.505 13.02 70.505 11 70 C10.91363281 69.39414063 10.82726562 68.78828125 10.73828125 68.1640625 C9.39046511 60.12662679 7.1304383 52.30783288 0.5625 47.0625 C-2 44 -2 44 -1.96875 41.40234375 C-1.44655323 38.5494599 -0.75121317 35.80033391 0 33 C0.98031704 28.23658027 1.15535027 23.59682908 1.125 18.75 C1.12306641 18.00435791 1.12113281 17.25871582 1.11914062 16.49047852 C1.07581803 10.93977063 0.69973268 5.51039485 0 0 Z " fill="#3662BB" transform="translate(153,13)"/>
<path d="M0 0 C3.4375 0.8125 3.4375 0.8125 5.8125 2.9375 C7.4375 5.8125 7.4375 5.8125 8.4375 11.8125 C13.0575 11.8125 17.6775 11.8125 22.4375 11.8125 C22.7675 10.1625 23.0975 8.5125 23.4375 6.8125 C27.21914557 1.08600814 27.21914557 1.08600814 31.5 0.125 C35.40472611 1.03887207 36.34466897 2.44902156 38.4375 5.8125 C44.68887319 19.74883195 43.81430368 37.48177316 39.99609375 51.95703125 C39.43845688 54.80760852 39.32308873 56.16861612 40.4375 58.8125 C41.69516432 60.49743294 41.69516432 60.49743294 43.25 62.0625 C49.04549061 68.52670106 51.60091999 75.15124031 51.4375 83.8125 C53.0875 84.1425 54.7375 84.4725 56.4375 84.8125 C57.0625 86.6875 57.0625 86.6875 57.4375 88.8125 C55.4375 90.8125 55.4375 90.8125 52.3125 90.9375 C51.36375 90.89625 50.415 90.855 49.4375 90.8125 C49.4375 91.4725 49.4375 92.1325 49.4375 92.8125 C51.4175 92.8125 53.3975 92.8125 55.4375 92.8125 C55.4375 94.7925 55.4375 96.7725 55.4375 98.8125 C54.86902344 98.791875 54.30054688 98.77125 53.71484375 98.75 C49.90099159 98.85187251 47.34813381 99.05193318 44.3515625 101.5546875 C41.79148448 104.50363813 39.60295595 107.56431607 37.4375 110.8125 C38.0975 111.616875 38.7575 112.42125 39.4375 113.25 C41.4375 115.8125 41.4375 115.8125 41.4375 116.8125 C24.2775 116.8125 7.1175 116.8125 -10.5625 116.8125 C-9.2425 114.5025 -7.9225 112.1925 -6.5625 109.8125 C-7.12839844 109.25820312 -7.69429687 108.70390625 -8.27734375 108.1328125 C-9.01082031 107.40835938 -9.74429688 106.68390625 -10.5 105.9375 C-11.23089844 105.21820313 -11.96179688 104.49890625 -12.71484375 103.7578125 C-14.5625 101.8125 -14.5625 101.8125 -15.5625 99.8125 C-17.45783342 99.34726937 -17.45783342 99.34726937 -19.625 99.1875 C-21.5740625 99.001875 -21.5740625 99.001875 -23.5625 98.8125 C-23.94468767 97.15635343 -24.27645102 95.48792976 -24.5625 93.8125 C-23.5625 92.8125 -23.5625 92.8125 -21 92.75 C-20.195625 92.770625 -19.39125 92.79125 -18.5625 92.8125 C-18.5625 92.1525 -18.5625 91.4925 -18.5625 90.8125 C-19.531875 90.833125 -20.50125 90.85375 -21.5 90.875 C-24.5625 90.8125 -24.5625 90.8125 -25.5625 89.8125 C-25.60313832 88.14632885 -25.605221 86.47861905 -25.5625 84.8125 C-23.0875 84.3175 -23.0875 84.3175 -20.5625 83.8125 C-20.48773438 83.06226562 -20.41296875 82.31203125 -20.3359375 81.5390625 C-19.10418197 71.95069098 -15.8883179 64.33751999 -8.5625 57.8125 C-7.9025 57.8125 -7.2425 57.8125 -6.5625 57.8125 C-6.84689941 57.26537354 -7.13129883 56.71824707 -7.42431641 56.15454102 C-11.04482019 48.35769176 -11.096644 41.2390761 -10.9375 32.75 C-10.93621094 31.43966797 -10.93492188 30.12933594 -10.93359375 28.77929688 C-10.69474105 2.43915147 -10.69474105 2.43915147 0 0 Z " fill="#FAB988" transform="translate(112.5625,-0.8125)"/>
<path d="M0 0 C31.02 0 62.04 0 94 0 C94 21.78 94 43.56 94 66 C62.98 66 31.96 66 0 66 C0 44.22 0 22.44 0 0 Z " fill="#06064C" transform="translate(81,149)"/>
<path d="M0 0 C1.39432078 0.00338332 1.39432078 0.00338332 2.81680965 0.00683498 C4.34534997 0.01836904 4.34534997 0.01836904 5.9047699 0.03013611 C6.97360444 0.03435861 8.04243898 0.0385811 9.14366245 0.04293156 C12.61282623 0.05814869 16.08189224 0.08077509 19.55101013 0.10411072 C21.80099873 0.11629256 24.05098857 0.12824652 26.30097961 0.13996887 C33.49767526 0.18023488 40.69425697 0.23277452 47.89085388 0.28770447 C49.18047091 0.29748888 50.47008793 0.30727329 51.79878426 0.3173542 C57.20498611 0.3586183 62.61118434 0.40026051 68.01737118 0.44344997 C75.69908609 0.50479372 83.38081052 0.5626909 91.06258482 0.61610264 C97.16875894 0.658863 103.2748802 0.70699316 109.38099861 0.75705147 C111.96749675 0.77745993 114.55400881 0.7961755 117.14053154 0.81318474 C120.72524745 0.8371158 124.30986086 0.86716804 127.89451599 0.89878845 C128.96595352 0.90454391 130.03739105 0.91029938 131.14129639 0.91622925 C132.59325912 0.93091248 132.59325912 0.93091248 134.07455444 0.94589233 C134.92000793 0.95234488 135.76546141 0.95879744 136.63653469 0.96544552 C138.55101013 1.10411072 138.55101013 1.10411072 139.55101013 2.10411072 C140.50519153 7.41213967 141.19689498 12.87161216 139.55101013 18.10411072 C135.54957207 22.44904572 130.84752079 24.63986924 125.55101013 27.10411072 C124.32440009 27.73833118 123.10035737 28.37754551 121.87913513 29.02207947 C93.08295465 43.78815964 57.93561105 45.56000599 27.30491638 35.78379822 C19.08426725 32.98310003 11.31648607 29.26660187 3.79319763 24.94004822 C0.73471728 23.1187516 0.73471728 23.1187516 -1.94117737 22.08067322 C-3.88648987 21.16661072 -3.88648987 21.16661072 -6.44898987 18.10411072 C-6.81031799 16.16514587 -6.81031799 16.16514587 -6.85523987 14.01817322 C-6.87272278 13.2498114 -6.89020569 12.48144958 -6.90821838 11.68980408 C-6.8761262 8.14776399 -6.69444635 4.63790478 -6.44898987 1.10411072 C-4.07145137 -0.08465853 -2.65178755 -0.01324329 0 0 Z " fill="#D7E8FB" transform="translate(61.44898986816406,214.89588928222656)"/>
<path d="M0 0 C0.65351724 -0.00155999 1.30703447 -0.00311998 1.98035526 -0.00472724 C4.18606333 -0.00873896 6.39170344 -0.00554696 8.59741211 -0.00241089 C10.17227214 -0.00376485 11.74713186 -0.00554476 13.32199097 -0.00772095 C17.61112615 -0.01229585 21.90023739 -0.01050549 26.18937302 -0.00734186 C30.66791602 -0.00481855 35.14645692 -0.00715572 39.625 -0.00872803 C47.14738332 -0.01054981 54.66975684 -0.00814319 62.19213867 -0.00338745 C70.90186251 0.00205519 79.61156294 0.00029253 88.3212862 -0.00521386 C95.78538114 -0.00974474 103.24946901 -0.01039565 110.71356487 -0.00777519 C115.17762829 -0.00621228 119.64168069 -0.00601902 124.10574341 -0.00931168 C128.30157701 -0.01219004 132.49738029 -0.01021535 136.6932106 -0.00441742 C138.23762079 -0.00308963 139.78203352 -0.00348425 141.32644272 -0.00568008 C143.42583408 -0.00839088 145.52512674 -0.00501138 147.62451172 0 C149.39102333 0.00056554 149.39102333 0.00056554 151.19322205 0.0011425 C153.81225586 0.12698364 153.81225586 0.12698364 154.81225586 1.12698364 C154.91099402 3.12497936 154.94197385 5.12655523 154.93725586 7.12698364 C154.93983398 8.22010864 154.94241211 9.31323364 154.94506836 10.43948364 C154.81225586 13.12698364 154.81225586 13.12698364 153.81225586 14.12698364 C151.95855975 14.21436009 150.10158045 14.23396517 148.24584961 14.22463989 C147.12114258 14.22141724 145.99643555 14.21819458 144.83764648 14.21487427 C143.65364258 14.20649536 142.46963867 14.19811646 141.24975586 14.18948364 C140.06188477 14.18497192 138.87401367 14.18046021 137.65014648 14.17581177 C134.7041336 14.16398039 131.75821905 14.14749651 128.81225586 14.12698364 C128.85350586 15.07573364 128.89475586 16.02448364 128.93725586 17.00198364 C128.81225586 20.12698364 128.81225586 20.12698364 126.81225586 22.12698364 C124.91351223 22.37587261 124.91351223 22.37587261 122.55430603 22.3742218 C121.21449928 22.38051353 121.21449928 22.38051353 119.84762573 22.38693237 C118.3740007 22.37850311 118.3740007 22.37850311 116.87060547 22.36990356 C115.83804123 22.37180191 114.80547699 22.37370026 113.74162292 22.37565613 C110.31587216 22.37937211 106.89033165 22.36864865 103.46459961 22.35745239 C101.09330775 22.35626103 98.72201541 22.35580734 96.35072327 22.35606384 C91.37652643 22.3544976 86.40240142 22.34619661 81.42822266 22.33279419 C75.0364002 22.31579493 68.64465671 22.31198002 62.25281429 22.31273937 C57.35538472 22.3124681 52.45797258 22.30699403 47.56054878 22.29973793 C45.20290827 22.29654485 42.84526577 22.29458237 40.48762321 22.29384422 C37.19988478 22.29168793 33.91223192 22.28295943 30.62451172 22.27224731 C29.14785034 22.27292709 29.14785034 22.27292709 27.64135742 22.27362061 C26.75097275 22.26935562 25.86058807 22.26509064 24.94322205 22.26069641 C23.77598052 22.25818264 23.77598052 22.25818264 22.58515835 22.2556181 C20.81225586 22.12698364 20.81225586 22.12698364 19.81225586 21.12698364 C19.77132649 18.79400931 19.76983863 16.4599314 19.81225586 14.12698364 C19.02987549 14.13222046 18.24749512 14.13745728 17.44140625 14.14285278 C13.91919752 14.1635547 10.39700156 14.17662203 6.87475586 14.18948364 C5.64305664 14.19786255 4.41135742 14.20624146 3.14233398 14.21487427 C1.97250977 14.21809692 0.80268555 14.22131958 -0.40258789 14.22463989 C-2.02861938 14.23249512 -2.02861938 14.23249512 -3.6875 14.24050903 C-6.18774414 14.12698364 -6.18774414 14.12698364 -7.18774414 13.12698364 C-7.2864823 11.12898793 -7.31746213 9.12741206 -7.31274414 7.12698364 C-7.31532227 6.03385864 -7.31790039 4.94073364 -7.32055664 3.81448364 C-7.0735483 -1.18380286 -4.41284376 0.00141275 0 0 Z " fill="#08094D" transform="translate(54.187744140625,115.87301635742188)"/>
<path d="M0 0 C8.28761871 5.78014316 12.83934612 12.51803836 16 22 C16.03954234 24.33299825 16.04401732 26.66708189 16 29 C17.65 29.33 19.3 29.66 21 30 C21.625 31.875 21.625 31.875 22 34 C20 36 20 36 16.875 36.125 C15.92625 36.08375 14.9775 36.0425 14 36 C14 36.66 14 37.32 14 38 C15.98 38 17.96 38 20 38 C20 39.98 20 41.96 20 44 C19.43152344 43.979375 18.86304688 43.95875 18.27734375 43.9375 C14.58494423 44.03612837 11.9574549 44.14626938 9.125 46.671875 C7.98220097 48.07921084 6.85626066 49.50037596 5.74609375 50.93359375 C2.99995862 54.18349416 -0.27699049 56.03074347 -4 58 C-5.6396875 58.928125 -5.6396875 58.928125 -7.3125 59.875 C-14.59367568 62.09637563 -20.94131944 60.85905523 -27.6875 57.5 C-35.07009339 53.08099053 -41.17646681 46.74063046 -44.37890625 38.65625 C-46.29581028 30.45816988 -46.3917695 21.31961583 -42 14 C-41.5978125 13.27425781 -41.195625 12.54851562 -40.78125 11.80078125 C-36.1668407 4.04601007 -29.50579819 -0.71573662 -20.953125 -3.52734375 C-13.42358334 -5.34949283 -6.76067998 -3.48362816 0 0 Z " fill="#FDD1B4" transform="translate(148,54)"/>
<path d="M0 0 C31.02 0 62.04 0 94 0 C94 3.63 94 7.26 94 11 C62.98 11 31.96 11 0 11 C0 7.37 0 3.74 0 0 Z " fill="#FEC510" transform="translate(81,138)"/>
<path d="M0 0 C3.90472611 0.91387207 4.84466897 2.32402156 6.9375 5.6875 C14.09386871 21.64135958 11.81283133 40.51620009 6.9375 56.6875 C6.05578125 56.39101563 5.1740625 56.09453125 4.265625 55.7890625 C2.2654603 55.12703615 0.25684754 54.48881243 -1.765625 53.8984375 C-2.60609375 53.62257812 -3.4465625 53.34671875 -4.3125 53.0625 C-5.16328125 52.80210938 -6.0140625 52.54171875 -6.890625 52.2734375 C-9.63089307 50.27245038 -10.12171495 48.38677697 -10.76220703 45.11767578 C-11.34607815 40.39259194 -11.40067477 35.69365812 -11.375 30.9375 C-11.37008545 29.87289551 -11.3651709 28.80829102 -11.36010742 27.71142578 C-11.22938279 18.95756797 -10.99285056 10.34514046 -5.75 2.9375 C-3.0625 0.6875 -3.0625 0.6875 0 0 Z " fill="#FBB987" transform="translate(144.0625,-0.6875)"/>
<path d="M0 0 C35.64 0 71.28 0 108 0 C108 2.31 108 4.62 108 7 C106.45406431 8.54593569 105.01509926 8.12594233 102.86230469 8.12698364 C101.97047485 8.12980347 101.07864502 8.13262329 100.15979004 8.13552856 C99.17377808 8.13350433 98.18776611 8.1314801 97.171875 8.12939453 C96.13945679 8.13114685 95.10703857 8.13289917 94.04333496 8.13470459 C90.61220648 8.13912533 87.18112906 8.13618433 83.75 8.1328125 C81.37727854 8.13348548 79.00455716 8.13445545 76.63183594 8.13571167 C71.65168605 8.13718894 66.67155406 8.13503314 61.69140625 8.13037109 C55.29171321 8.1246738 48.8920621 8.12795264 42.49237061 8.13394356 C37.59065431 8.13754837 32.68894804 8.13641095 27.78723145 8.13381577 C25.42679845 8.13314628 23.06636456 8.13397568 20.70593262 8.13629532 C17.41330537 8.13882054 14.12074708 8.13498309 10.828125 8.12939453 C9.84211304 8.13141876 8.85610107 8.13344299 7.84020996 8.13552856 C6.94838013 8.13270874 6.05655029 8.12988892 5.13769531 8.12698364 C4.35823547 8.12660662 3.57877563 8.12622959 2.7756958 8.12584114 C1 8 1 8 0 7 C0 4.69 0 2.38 0 0 Z " fill="#000011" transform="translate(74,130)"/>
<path d="M0 0 C3.63 0 7.26 0 11 0 C11 21.78 11 43.56 11 66 C7.37 66 3.74 66 0 66 C0 44.22 0 22.44 0 0 Z " fill="#020318" transform="translate(81,149)"/>
<path d="M0 0 C9 9 9 9 9 12 C7.54882812 13.42993164 7.54882812 13.42993164 5.53125 15.09765625 C0.95144237 18.99190626 -3.27667712 23.16334082 -7.5 27.4375 C-8.22703125 28.16904297 -8.9540625 28.90058594 -9.703125 29.65429688 C-11.47109499 31.43389824 -13.23666378 33.21580918 -15 35 C-16.10865985 34.08877273 -17.21172219 33.17073341 -18.3125 32.25 C-18.92738281 31.73953125 -19.54226562 31.2290625 -20.17578125 30.703125 C-22 29 -22 29 -25 25 C-16.75 16.75 -8.5 8.5 0 0 Z " fill="#07084E" transform="translate(220,52)"/>
<path d="M0 0 C1.67542976 0.28604898 3.34385343 0.61781233 5 1 C9.8183399 15.36897793 9.34738095 30.58636198 5 45 C2.08203125 44.640625 2.08203125 44.640625 -1 44 C-4.69251555 37.66997334 -4.21378011 29.9070711 -4.25 22.8125 C-4.270625 21.82185547 -4.29125 20.83121094 -4.3125 19.81054688 C-4.34766101 13.10797954 -3.49202371 7.25373839 -1 1 C-0.67 0.67 -0.34 0.34 0 0 Z " fill="#EF9717" transform="translate(142,8)"/>
<path d="M0 0 C1.65 0 3.3 0 5 0 C8.01925409 7.51228657 8.42742558 14.0131126 8.3125 22.0625 C8.31572266 23.19494141 8.31894531 24.32738281 8.32226562 25.49414062 C8.28299726 31.62357465 8.07620726 37.19903552 6 43 C2.875 44.5 2.875 44.5 0 45 C-5.17890557 30.63586568 -5.34478189 16.67770876 -1 2 C-0.67 1.34 -0.34 0.68 0 0 Z " fill="#EF981B" transform="translate(110,8)"/>
<path d="M0 0 C4.26615504 2.04066983 6.73398524 4.58553002 10 8 C8.48623919 11.56764285 6.39486871 13.83706287 3.6484375 16.546875 C2.79765625 17.39121094 1.946875 18.23554687 1.0703125 19.10546875 C0.18085938 19.97816406 -0.70859375 20.85085937 -1.625 21.75 C-2.5221875 22.63816406 -3.419375 23.52632812 -4.34375 24.44140625 C-6.55807004 26.63216969 -8.77692435 28.81812763 -11 31 C-14.7840597 29.22546237 -17.33164025 27.27827055 -20 24 C-19.814487 19.47190208 -17.90963151 17.43520419 -14.74609375 14.35546875 C-13.46508789 13.09379883 -13.46508789 13.09379883 -12.15820312 11.80664062 C-11.26037109 10.94232422 -10.36253906 10.07800781 -9.4375 9.1875 C-8.53580078 8.30384766 -7.63410156 7.42019531 -6.70507812 6.50976562 C-4.47877434 4.33057938 -2.24367741 2.16127083 0 0 Z " fill="#82A7E9" transform="translate(194,78)"/>
<path d="M0 0 C4.62 0 9.24 0 14 0 C13.83701416 1.0010376 13.67402832 2.0020752 13.50610352 3.03344727 C13.01273662 6.90017761 12.88618051 10.56950283 12.90234375 14.46484375 C12.90446617 15.48210289 12.90446617 15.48210289 12.90663147 16.51991272 C12.91217255 18.65915578 12.92471347 20.79828925 12.9375 22.9375 C12.94252264 24.39908702 12.9470842 25.86067569 12.95117188 27.32226562 C12.96212255 30.88154526 12.97934555 34.44076191 13 38 C9.04 38 5.08 38 1 38 C1.165 36.618125 1.33 35.23625 1.5 33.8125 C2.62076242 22.24753129 1.70948903 11.4322079 0 0 Z " fill="#3863BB" transform="translate(121,11)"/>
<path d="M0 0 C3 1 3 1 4.09765625 3.03125 C4.41605469 3.8459375 4.73445313 4.660625 5.0625 5.5 C6.22702003 8.96056812 6.22702003 8.96056812 9 11 C9 11.66 9 12.32 9 13 C11.97 13.495 11.97 13.495 15 14 C15 15.32 15 16.64 15 18 C14.39671875 18.18433594 13.7934375 18.36867188 13.171875 18.55859375 C8.09310418 20.39264254 8.09310418 20.39264254 4.51171875 24.26953125 C3.5495641 26.49123381 2.70725656 28.68534217 2 31 C0.078125 30.2578125 0.078125 30.2578125 -2 29 C-3.11714584 26.37576119 -3.45369812 23.82255969 -4 21 C-4.62648438 20.90203125 -5.25296875 20.8040625 -5.8984375 20.703125 C-6.71570312 20.55359375 -7.53296875 20.4040625 -8.375 20.25 C-9.18710937 20.11078125 -9.99921875 19.9715625 -10.8359375 19.828125 C-13 19 -13 19 -14.3515625 17.046875 C-15 15 -15 15 -14 13 C-12.55678048 12.41926227 -11.09503895 11.88404261 -9.625 11.375 C-6.1034682 9.91328393 -6.1034682 9.91328393 -3.80859375 6.99609375 C-3.13359989 5.02058816 -2.56044405 3.01100511 -2 1 C-1.34 0.67 -0.68 0.34 0 0 Z " fill="#FBC412" transform="translate(68,10)"/>
<path d="M0 0 C1.07636719 0.00322266 2.15273437 0.00644531 3.26171875 0.00976562 C4.38964844 0.01814453 5.51757812 0.02652344 6.6796875 0.03515625 C7.81535156 0.03966797 8.95101562 0.04417969 10.12109375 0.04882812 C12.93234388 0.0606401 15.7434898 0.07711118 18.5546875 0.09765625 C18.5546875 0.42765625 18.5546875 0.75765625 18.5546875 1.09765625 C15.2546875 1.42765625 11.9546875 1.75765625 8.5546875 2.09765625 C8.5546875 10.34765625 8.5546875 18.59765625 8.5546875 27.09765625 C6.0796875 26.10765625 6.0796875 26.10765625 3.5546875 25.09765625 C2.59949219 24.72511719 1.64429687 24.35257813 0.66015625 23.96875 C-2.7341683 22.30112335 -4.95065156 20.96951678 -7.4453125 18.09765625 C-8.83418758 12.55574569 -8.0700146 6.7073549 -7.4453125 1.09765625 C-4.83580014 -0.20709993 -2.91829965 -0.01535947 0 0 Z " fill="#BED9F2" transform="translate(62.4453125,214.90234375)"/>
<path d="M0 0 C1.32 0 2.64 0 4 0 C4.350625 1.093125 4.70125 2.18625 5.0625 3.3125 C6.37683541 6.46435287 7.53564713 7.62316459 10.6875 8.9375 C11.780625 9.288125 12.87375 9.63875 14 10 C14 11.32 14 12.64 14 14 C12.39125 14.495 12.39125 14.495 10.75 15 C6.57348949 16.73668287 5.36392372 19.32645329 3.62890625 23.35546875 C3.42136719 23.89816406 3.21382812 24.44085937 3 25 C-0.859375 23.3125 -0.859375 23.3125 -2.125 20.5 C-2.41375 19.675 -2.7025 18.85 -3 18 C-5.22189824 15.77810176 -7.08482708 15.07401108 -10 14 C-10 12.68 -10 11.36 -10 10 C-8.906875 9.649375 -7.81375 9.29875 -6.6875 8.9375 C-3.53564713 7.62316459 -2.37683541 6.46435287 -1.0625 3.3125 C-0.711875 2.219375 -0.36125 1.12625 0 0 Z " fill="#FFAF0F" transform="translate(204,0)"/>
<path d="M0 0 C3.83763518 6.57880317 4.36112471 13.76235434 4.3125 21.1875 C4.31121094 22.01032471 4.30992187 22.83314941 4.30859375 23.6809082 C4.19815425 30.76767282 3.05156376 37.1980892 1 44 C-2.74546455 37.00119724 -3.36402745 29.51081599 -3.3125 21.6875 C-3.31121094 20.86660889 -3.30992187 20.04571777 -3.30859375 19.19995117 C-3.20355232 12.50684241 -2.13380686 6.36331689 0 0 Z " fill="#ECAA4A" transform="translate(146,9)"/>
<path d="M0 0 C3.63 0 7.26 0 11 0 C11 3.3 11 6.6 11 10 C38.06 10 65.12 10 93 10 C93 6.7 93 3.4 93 0 C93.33 0 93.66 0 94 0 C94 3.63 94 7.26 94 11 C62.98 11 31.96 11 0 11 C0 7.37 0 3.74 0 0 Z " fill="#EEAF18" transform="translate(81,138)"/>
<path d="M0 0 C1.87751953 0.03673828 1.87751953 0.03673828 3.79296875 0.07421875 C6.8125 0.3125 6.8125 0.3125 7.8125 1.3125 C8 3.75 8 3.75 7.8125 6.3125 C5.8125 8.3125 5.8125 8.3125 3.6484375 8.5078125 C2.43027344 8.47300781 2.43027344 8.47300781 1.1875 8.4375 C0.37023437 8.41945313 -0.44703125 8.40140625 -1.2890625 8.3828125 C-1.91554688 8.35960938 -2.54203125 8.33640625 -3.1875 8.3125 C-1.31047673 13.20812693 -1.31047673 13.20812693 1.8125 17.3125 C-6.10220588 17.92132353 -6.10220588 17.92132353 -9.75 15.875 C-11.83071082 12.16590679 -12.18051854 8.45981272 -11.1875 4.3125 C-8.05530397 -0.16538025 -5.25517014 -0.15792739 0 0 Z " fill="#EBAA4C" transform="translate(126.1875,84.6875)"/>
<path d="M0 0 C2.90306653 2.65062596 3.92085686 4.58327125 4.14526367 8.6003418 C4.16990021 11.96283132 4.18566152 15.32491313 4.1875 18.6875 C4.19974609 19.84701172 4.21199219 21.00652344 4.22460938 22.20117188 C4.23534935 28.49837514 3.87834302 33.97890836 2 40 C1.34 40 0.68 40 0 40 C-2.04426222 33.25068983 -2.3021796 27.026853 -2.25 20 C-2.25773437 18.9584375 -2.26546875 17.916875 -2.2734375 16.84375 C-2.25837073 10.87730776 -1.73081808 5.71444699 0 0 Z " fill="#EBA948" transform="translate(114,11)"/>
<path d="M0 0 C5.28 0 10.56 0 16 0 C16 3.96 16 7.92 16 12 C10.72 12 5.44 12 0 12 C0 8.04 0 4.08 0 0 Z " fill="#000013" transform="translate(47,117)"/>
<path d="M0 0 C3.70409874 0.50055388 5.67622102 1.01993762 8 4 C8.3984375 6.15625 8.3984375 6.15625 8.375 8.5 C8.38273437 9.2734375 8.39046875 10.046875 8.3984375 10.84375 C7.9056562 13.51056642 7.1276451 14.36181317 5 16 C1.36217368 17.21260877 -1.17735999 17.39544552 -5 17 C-7.9375 14.75 -7.9375 14.75 -10 12 C-10 10.68 -10 9.36 -10 8 C-9.04287109 7.90912109 -9.04287109 7.90912109 -8.06640625 7.81640625 C-6.82697266 7.69072266 -6.82697266 7.69072266 -5.5625 7.5625 C-4.73878906 7.48128906 -3.91507813 7.40007812 -3.06640625 7.31640625 C-1.01337975 7.21069185 -1.01337975 7.21069185 0 6 C0.04080783 4.00041636 0.04254356 1.99954746 0 0 Z " fill="#FEBA87" transform="translate(133,85)"/>
<path d="M0 0 C0.99 0.33 1.98 0.66 3 1 C3.33 2.98 3.66 4.96 4 7 C6.31 7.66 8.62 8.32 11 9 C10.8125 10.875 10.8125 10.875 10 13 C8.824375 13.433125 8.824375 13.433125 7.625 13.875 C4.03580697 15.41322558 3.44989429 17.48972962 2 21 C1.01 20.67 0.02 20.34 -1 20 C-1.45375 19.030625 -1.9075 18.06125 -2.375 17.0625 C-3.72142507 13.81873754 -3.72142507 13.81873754 -6.6875 12.625 C-7.450625 12.41875 -8.21375 12.2125 -9 12 C-9 11.01 -9 10.02 -9 9 C-8.071875 8.62875 -7.14375 8.2575 -6.1875 7.875 C-2.4739697 5.69057041 -1.57312496 3.93281241 0 0 Z " fill="#F3F6FB" transform="translate(64,75)"/>
<path d="M0 0 C4.29238623 1.65091778 6.8793915 4.73754566 10 8 C7.99892742 12.6489565 4.8751729 14.84245171 1 18 C-1.97 15.03 -4.94 12.06 -8 9 C-2.25 2.25 -2.25 2.25 0 0 Z " fill="#F5AA17" transform="translate(194,78)"/>
<path d="M0 0 C0.66 0 1.32 0 2 0 C5 5.75 5 5.75 5 8 C6.32 8 7.64 8 9 8 C8.67 9.32 8.34 10.64 8 12 C6.35 12.33 4.7 12.66 3 13 C2.34 14.98 1.68 16.96 1 19 C-2 16 -2 16 -3.4375 14.4375 C-5.16484976 12.84833822 -6.86709165 11.95613133 -9 11 C-9 10.01 -9 9.02 -9 8 C-7.6078125 7.4121875 -7.6078125 7.4121875 -6.1875 6.8125 C-2.74078196 4.85260151 -1.83913242 3.40239497 0 0 Z " fill="#FBC04A" transform="translate(25,53)"/>
<path d="M0 0 C0.99 0 1.98 0 3 0 C3.20625 0.763125 3.4125 1.52625 3.625 2.3125 C5.42070704 5.82229103 7.43136312 6.52599781 11 8 C10.67 8.66 10.34 9.32 10 10 C9.195625 10.268125 8.39125 10.53625 7.5625 10.8125 C4.76670768 11.78464531 4.76670768 11.78464531 3.6875 14.625 C3.460625 15.40875 3.23375 16.1925 3 17 C2.01 17 1.02 17 0 17 C-0.226875 16.21625 -0.45375 15.4325 -0.6875 14.625 C-1.78125 11.78125 -1.78125 11.78125 -4.625 10.6875 C-5.40875 10.460625 -6.1925 10.23375 -7 10 C-7 9.01 -7 8.02 -7 7 C-5.824375 6.6596875 -5.824375 6.6596875 -4.625 6.3125 C-1.78125 5.21875 -1.78125 5.21875 -0.6875 2.375 C-0.460625 1.59125 -0.23375 0.8075 0 0 Z " fill="#F6F8FC" transform="translate(179,43)"/>
<path d="M0 0 C0.8146875 0.00257812 1.629375 0.00515625 2.46875 0.0078125 C3.2834375 0.00523438 4.098125 0.00265625 4.9375 0 C6.96875 0.1328125 6.96875 0.1328125 7.96875 1.1328125 C8.15625 3.5703125 8.15625 3.5703125 7.96875 6.1328125 C5.96875 8.1328125 5.96875 8.1328125 4.09375 8.3984375 C3.3925 8.39328125 2.69125 8.388125 1.96875 8.3828125 C1.2675 8.38796875 0.56625 8.393125 -0.15625 8.3984375 C-2.03125 8.1328125 -2.03125 8.1328125 -4.03125 6.1328125 C-3.309737 0.21640588 -3.309737 0.21640588 0 0 Z " fill="#883B2F" transform="translate(126.03125,84.8671875)"/>
<path d="M0 0 C5.28 0 10.56 0 16 0 C15.67 1.32 15.34 2.64 15 4 C10.38 4 5.76 4 1 4 C0.67 2.68 0.34 1.36 0 0 Z " fill="#FDF3E9" transform="translate(120,102)"/>
<path d="M0 0 C3 0.125 3 0.125 4 1.125 C4.125 4.125 4.125 4.125 4 7.125 C3 8.125 3 8.125 0 8.25 C-3 8.125 -3 8.125 -4 7.125 C-4.125 4.125 -4.125 4.125 -4 1.125 C-3 0.125 -3 0.125 0 0 Z " fill="#893D32" transform="translate(143,77.875)"/>
<path d="M0 0 C2.5625 0.1875 2.5625 0.1875 4.5625 2.1875 C4.75 4.75 4.75 4.75 4.5625 7.1875 C3.5625 8.1875 3.5625 8.1875 0.5625 8.3125 C-2.4375 8.1875 -2.4375 8.1875 -3.4375 7.1875 C-3.5625 4.1875 -3.5625 4.1875 -3.4375 1.1875 C-2.4375 0.1875 -2.4375 0.1875 0 0 Z " fill="#873B30" transform="translate(111.4375,77.8125)"/>
<path d="M0 0 C3.68754757 0.49831724 5.60490662 1.10067643 8 4 C7.67 4.66 7.34 5.32 7 6 C3.37 6 -0.26 6 -4 6 C-2.68 4.02 -1.36 2.04 0 0 Z " fill="#E7A84C" transform="translate(106,110)"/>
<path d="M0 0 C1.98 0 3.96 0 6 0 C6 1.98 6 3.96 6 6 C3.36 6 0.72 6 -2 6 C-1.34 4.02 -0.68 2.04 0 0 Z " fill="#CA8354" transform="translate(162,92)"/>
<path d="M0 0 C1.67542976 0.28604898 3.34385343 0.61781233 5 1 C5.625 2.875 5.625 2.875 6 5 C4 7 4 7 1.375 7.125 C0.59125 7.08375 -0.1925 7.0425 -1 7 C-1.04254356 5.00045254 -1.04080783 2.99958364 -1 1 C-0.67 0.67 -0.34 0.34 0 0 Z " fill="#BE825F" transform="translate(164,83)"/>
<path d="M0 0 C1.2065625 0.0309375 1.2065625 0.0309375 2.4375 0.0625 C3.0975 2.0425 3.7575 4.0225 4.4375 6.0625 C2.1275 6.0625 -0.1825 6.0625 -2.5625 6.0625 C-2.94468767 4.40635343 -3.27645102 2.73792976 -3.5625 1.0625 C-2.5625 0.0625 -2.5625 0.0625 0 0 Z " fill="#CB8251" transform="translate(91.5625,91.9375)"/>
<path d="M0 0 C1.32 0 2.64 0 4 0 C4.33 2.31 4.66 4.62 5 7 C3.33388095 7.042721 1.66617115 7.04063832 0 7 C-1 6 -1 6 -1.125 3.5 C-1 1 -1 1 0 0 Z " fill="#BD7F5A" transform="translate(88,83)"/>
<path d="M0 0 C-0.33 1.32 -0.66 2.64 -1 4 C-2.98 4 -4.96 4 -7 4 C-7 3.34 -7 2.68 -7 2 C-7.66 1.67 -8.32 1.34 -9 1 C-5.92677456 0.08941469 -3.19902639 -0.08886184 0 0 Z " fill="#FFFBF8" transform="translate(136,102)"/>
</svg>
